<?xml version="1.0" encoding="iso-8859-1"?>
<!-- Generator: Adobe Illustrator 19.0.0, SVG Export Plug-In . SVG Version: 6.00 Build 0)  -->
<svg version="1.1" id="Layer_1" xmlns="http://www.w3.org/2000/svg" xmlns:xlink="http://www.w3.org/1999/xlink" x="0px" y="0px"
	 viewBox="0 0 512 512" style="enable-background:new 0 0 512 512;" xml:space="preserve">
<polygon style="fill:#74B957;" points="504.082,192.66 504.082,319.34 430.186,319.34 430.186,298.227 430.186,213.773 
	430.186,192.66 "/>
<g>
	<path style="fill:#43B05C;" d="M430.186,213.773v84.454c-23.32,0-42.227-18.907-42.227-42.227
		C387.959,232.68,406.866,213.773,430.186,213.773z"/>
	<path style="fill:#43B05C;" d="M504.082,319.34v105.567H256v-95.01c40.812,0,73.897-33.085,73.897-73.897
		S296.812,182.103,256,182.103v-95.01h248.082V192.66h-73.897v21.113c-23.32,0-42.227,18.907-42.227,42.227
		c0,23.32,18.907,42.227,42.227,42.227v21.113H504.082z"/>
</g>
<g>
	<path style="fill:#74B957;" d="M256,182.103c40.812,0,73.897,33.085,73.897,73.897S296.812,329.897,256,329.897V182.103z"/>
	<path style="fill:#74B957;" d="M256,182.103v147.794c-40.812,0-73.897-33.085-73.897-73.897S215.188,182.103,256,182.103z"/>
</g>
<g>
	<path style="fill:#43B05C;" d="M256,329.897v95.01H7.918V319.34h73.897v-21.113c23.32,0,42.227-18.907,42.227-42.227
		c0-23.32-18.907-42.227-42.227-42.227V192.66H7.918V87.093H256v95.01c-40.812,0-73.897,33.085-73.897,73.897
		S215.188,329.897,256,329.897z"/>
	<path style="fill:#43B05C;" d="M81.814,213.773c23.32,0,42.227,18.907,42.227,42.227c0,23.32-18.907,42.227-42.227,42.227V213.773z
		"/>
</g>
<polygon style="fill:#74B957;" points="81.814,298.227 81.814,319.34 7.918,319.34 7.918,192.66 81.814,192.66 81.814,213.773 "/>
<path d="M0,79.175v353.65h512V79.175H0z M248.082,321.487c-32.659-3.926-58.062-31.787-58.062-65.487s25.403-61.561,58.062-65.487
	V321.487z M263.918,190.513c32.659,3.926,58.062,31.787,58.062,65.487s-25.403,61.561-58.062,65.487V190.513z M73.897,200.577
	v110.845H15.835V200.577H73.897z M15.835,327.258h73.897v-21.745c23.9-3.808,42.227-24.558,42.227-49.513
	c0-24.955-18.326-45.705-42.227-49.513v-21.745H15.835V95.01h232.247v79.565c-41.411,3.996-73.897,38.984-73.897,81.425
	s32.486,77.428,73.897,81.425v79.565H15.835V327.258z M89.732,222.623c15.112,3.585,26.392,17.184,26.392,33.377
	s-11.28,29.792-26.392,33.377V222.623z M438.103,311.423V200.577h58.062v110.845H438.103z M422.268,184.742v21.745
	c-23.9,3.808-42.227,24.558-42.227,49.513c0,24.955,18.326,45.705,42.227,49.513v21.745h73.897v89.732H263.918v-79.565
	c41.411-3.996,73.897-38.984,73.897-81.425s-32.486-77.428-73.897-81.425V95.01h232.247v89.732H422.268z M422.268,289.377
	c-15.112-3.585-26.392-17.184-26.392-33.377c0-16.193,11.28-29.792,26.392-33.377V289.377z"/>
<g>
</g>
<g>
</g>
<g>
</g>
<g>
</g>
<g>
</g>
<g>
</g>
<g>
</g>
<g>
</g>
<g>
</g>
<g>
</g>
<g>
</g>
<g>
</g>
<g>
</g>
<g>
</g>
<g>
</g>
</svg>
